<?xml version="1.0" encoding="UTF-8" ?>
<!DOCTYPE svg PUBLIC "-//W3C//DTD SVG 1.1//EN" "http://www.w3.org/Graphics/SVG/1.1/DTD/svg11.dtd">
<svg width="1200pt" height="1200pt" viewBox="0 0 1200 1200" version="1.1" xmlns="http://www.w3.org/2000/svg">
<g id="#ff2e63ff">
<path fill="#ff2e63" opacity="1.00" d=" M 765.58 269.36 C 768.74 268.68 772.74 268.17 775.17 270.82 C 779.33 274.33 777.71 281.82 772.58 283.50 C 753.58 288.32 734.52 292.99 715.46 297.57 C 714.31 297.95 712.76 297.97 712.28 299.29 C 703.19 317.37 694.38 335.59 685.14 353.59 C 693.94 356.59 703.08 358.58 711.57 362.43 C 724.70 367.78 737.51 375.27 746.24 386.71 C 750.23 392.09 752.62 398.52 753.51 405.13 C 758.88 425.58 763.57 446.24 766.41 467.21 C 769.90 490.68 770.25 514.98 763.94 538.03 C 751.21 588.27 711.07 630.54 661.46 645.59 C 651.20 648.79 640.63 651.05 629.92 652.06 C 620.64 652.59 611.34 652.69 602.06 652.10 C 560.09 648.79 520.02 626.97 494.29 593.67 C 470.20 563.02 458.40 522.89 462.61 484.08 C 463.43 475.67 464.66 467.30 466.09 458.97 C 452.27 451.43 440.61 439.88 433.12 426.02 C 424.02 409.77 421.33 390.22 424.95 372.02 C 428.16 356.11 436.40 341.30 448.11 330.08 C 460.18 318.14 476.23 310.39 493.04 308.10 C 509.02 305.56 525.65 308.72 540.08 315.86 C 554.16 323.24 566.09 334.67 574.04 348.44 C 597.86 344.81 622.12 344.99 646.07 347.09 C 651.81 347.31 654.97 354.97 651.43 359.35 C 648.95 363.12 643.99 362.54 640.11 362.19 C 620.33 360.46 600.34 360.64 580.62 362.99 C 581.55 365.77 582.31 368.60 582.94 371.47 C 598.46 368.85 614.31 368.67 630.00 369.42 C 633.72 369.79 638.00 369.44 641.01 372.08 C 644.06 374.83 643.92 380.17 640.60 382.66 C 636.65 385.81 631.44 383.34 626.91 383.56 C 612.78 383.36 598.55 383.53 584.56 385.71 C 584.85 396.46 583.54 407.40 579.52 417.44 C 578.57 419.89 577.00 422.36 574.46 423.39 C 570.32 425.27 564.92 422.45 564.01 418.02 C 563.18 414.32 565.47 410.98 566.42 407.55 C 571.20 391.54 569.97 373.64 562.21 358.75 C 554.82 343.81 541.36 332.32 525.87 326.44 C 515.63 323.06 504.62 321.46 493.91 323.22 C 476.72 326.28 460.60 336.03 450.70 350.51 C 441.11 363.84 437.07 380.94 439.38 397.17 C 441.98 415.74 453.03 432.90 468.79 443.01 C 470.96 431.39 473.64 419.86 476.60 408.42 C 477.87 404.14 477.74 399.54 479.61 395.42 C 484.00 384.46 493.40 376.36 503.34 370.47 C 507.74 367.78 514.13 370.95 514.56 376.10 C 515.17 379.17 513.42 382.21 510.84 383.78 C 503.76 388.39 496.53 393.94 493.40 402.09 C 490.91 408.32 493.84 415.13 497.95 419.91 C 502.29 406.88 511.89 395.21 524.52 389.55 C 528.20 387.51 533.52 388.72 535.53 392.53 C 537.71 396.20 535.88 401.45 531.98 403.12 C 520.99 407.90 512.37 418.91 511.63 431.01 C 522.13 436.90 533.40 441.39 545.10 444.21 C 564.22 449.72 584.11 452.00 603.94 452.80 C 628.10 453.50 652.46 452.08 676.09 446.71 C 691.18 443.40 706.10 438.54 719.52 430.77 C 719.71 422.63 714.79 415.38 708.86 410.25 C 697.00 400.01 682.07 394.17 667.14 390.05 C 659.89 404.53 652.74 419.06 645.32 433.44 C 643.30 437.56 637.47 439.12 633.83 436.19 C 630.84 434.00 629.73 429.68 631.63 426.42 C 653.75 382.00 676.02 337.65 698.18 293.24 C 699.86 289.92 701.33 285.66 705.35 284.59 C 725.42 279.48 745.50 274.43 765.58 269.36 M 677.99 367.78 C 676.43 370.83 674.86 373.88 673.51 377.04 C 684.82 380.48 696.08 384.49 706.14 390.81 C 717.63 397.56 728.17 407.26 732.52 420.18 C 736.00 415.61 739.40 409.99 737.93 404.01 C 735.79 396.47 729.89 390.66 723.59 386.35 C 709.92 377.00 693.99 371.60 677.99 367.78 M 487.19 431.02 C 483.40 448.89 479.88 466.85 477.94 485.02 C 475.56 507.25 478.65 530.07 487.09 550.78 C 501.22 586.50 531.06 615.71 567.20 628.80 C 587.40 636.67 609.60 638.82 631.08 636.52 C 660.45 633.41 688.55 620.28 709.97 599.98 C 738.42 573.67 754.73 534.75 753.52 496.00 C 752.81 473.94 748.62 452.18 743.83 430.69 C 735.14 441.01 722.68 446.93 710.63 452.37 C 710.01 484.83 703.74 517.14 692.78 547.68 C 691.40 550.79 690.81 554.84 687.53 556.61 C 683.67 559.11 677.80 557.01 676.43 552.62 C 674.95 548.73 677.54 545.02 678.65 541.42 C 688.12 514.52 693.85 486.25 695.04 457.73 C 679.37 462.41 663.21 465.40 646.95 467.01 C 609.17 470.22 570.45 468.47 534.05 457.19 C 524.34 454.57 515.31 450.04 506.33 445.61 C 499.16 441.92 492.57 437.03 487.19 431.02 Z" />
</g>
<g id="#232832c3">
<path fill="#232832" opacity="0.76" d=" M 643.77 727.00 C 649.97 727.00 656.17 727.00 662.38 727.00 C 662.37 746.29 662.46 765.57 662.33 784.86 C 667.20 785.31 672.09 785.60 676.97 785.97 C 676.96 787.64 676.96 789.32 676.97 791.00 C 664.85 791.00 652.73 791.00 640.61 791.00 C 640.61 789.31 640.61 787.63 640.63 785.96 C 645.35 785.55 650.08 785.26 654.81 784.90 C 654.74 767.63 654.75 750.36 654.80 733.09 C 651.13 732.65 647.45 732.32 643.78 732.04 C 643.77 730.35 643.76 728.67 643.77 727.00 Z" />
<path fill="#232832" opacity="0.76" d=" M 714.10 728.02 C 716.40 727.05 719.79 725.94 721.54 728.43 C 723.29 730.94 722.10 734.24 720.00 736.15 C 717.96 736.10 715.95 735.81 714.09 734.99 C 713.52 732.68 713.51 730.31 714.10 728.02 Z" />
<path fill="#232832" opacity="0.76" d=" M 360.46 730.60 C 368.47 729.07 376.85 730.13 384.41 733.09 C 383.59 735.42 382.71 737.73 381.82 740.04 C 375.11 737.50 367.67 735.79 360.58 737.70 C 356.28 738.85 354.01 743.85 355.37 747.97 C 356.11 751.36 359.14 753.50 362.13 754.86 C 368.45 757.78 375.57 759.33 381.05 763.87 C 386.24 768.50 386.92 776.73 383.99 782.78 C 381.17 788.31 374.96 791.09 369.06 791.79 C 361.57 792.41 353.77 792.19 346.73 789.28 C 346.75 786.85 346.75 784.42 346.74 782.00 C 355.06 784.74 364.40 787.00 372.89 783.74 C 378.65 781.51 379.87 772.80 375.15 768.95 C 368.20 763.95 358.94 763.31 352.46 757.52 C 347.48 753.15 346.38 745.60 348.49 739.55 C 350.40 734.57 355.43 731.59 360.46 730.60 Z" />
<path fill="#232832" opacity="0.76" d=" M 233.91 731.00 C 245.46 731.00 257.01 731.00 268.56 730.99 C 268.55 733.31 268.52 735.64 268.45 737.97 C 259.54 737.99 250.64 737.94 241.74 737.99 C 241.57 743.99 241.74 750.00 241.63 756.00 C 250.09 756.00 258.56 756.00 267.02 756.00 C 267.01 758.29 267.00 760.59 266.95 762.89 C 258.55 763.08 250.14 762.90 241.73 763.00 C 241.62 770.00 241.62 777.00 241.73 784.00 C 250.63 784.05 259.53 784.02 268.43 784.02 C 268.52 786.34 268.56 788.67 268.56 791.00 C 257.01 791.00 245.46 791.00 233.91 791.00 C 233.90 771.00 233.90 751.00 233.91 731.00 Z" />
<path fill="#232832" opacity="0.76" d=" M 522.46 731.00 C 531.68 731.45 541.53 729.45 550.15 733.70 C 557.86 737.46 562.67 745.52 563.69 753.89 C 564.73 763.19 564.12 773.50 558.27 781.24 C 553.39 787.85 545.00 790.85 537.01 791.02 C 532.16 791.04 527.30 790.97 522.45 791.00 C 522.44 771.00 522.43 751.00 522.46 731.00 M 530.20 737.72 C 530.23 753.22 530.29 768.73 530.17 784.23 C 536.68 784.60 543.90 784.24 549.09 779.78 C 554.36 775.15 555.77 767.70 555.94 761.01 C 555.85 753.97 554.60 745.85 548.58 741.34 C 543.40 737.24 536.43 737.59 530.20 737.72 Z" />
<path fill="#232832" opacity="0.76" d=" M 291.78 749.03 C 299.45 744.70 309.11 743.66 317.50 746.45 C 322.74 748.11 325.24 753.92 325.08 759.07 C 325.12 769.73 325.08 780.39 325.09 791.05 C 323.22 791.01 321.35 790.98 319.49 790.90 C 319.03 788.97 318.54 787.06 317.99 785.17 C 315.44 788.00 312.50 790.79 308.62 791.54 C 303.14 792.57 296.71 792.51 292.34 788.56 C 288.65 785.21 287.85 779.72 288.82 775.04 C 289.72 770.80 293.33 767.66 297.28 766.24 C 303.87 763.87 311.00 764.02 317.90 763.94 C 317.67 759.90 317.71 754.65 313.48 752.57 C 307.21 749.53 300.27 752.55 294.15 754.51 C 293.31 752.70 292.41 750.91 291.78 749.03 M 301.12 771.29 C 295.43 773.37 294.44 783.13 300.45 785.41 C 305.78 787.10 312.54 785.53 315.65 780.62 C 317.84 777.25 317.53 773.07 317.67 769.24 C 312.14 769.54 306.38 769.30 301.12 771.29 Z" />
<path fill="#232832" opacity="0.76" d=" M 586.58 750.61 C 591.58 745.18 599.74 743.87 606.66 745.58 C 612.61 747.15 617.37 752.10 619.03 757.98 C 620.32 761.93 620.01 766.13 620.00 770.22 C 609.38 770.37 598.75 769.97 588.14 770.43 C 588.56 775.77 590.24 782.06 595.80 784.17 C 602.93 786.58 610.73 784.87 617.59 782.30 C 617.56 784.54 617.55 786.79 617.55 789.05 C 609.59 792.21 600.17 793.59 592.13 789.99 C 585.47 787.01 581.24 780.06 580.63 772.92 C 579.74 765.16 580.96 756.45 586.58 750.61 M 590.93 755.96 C 589.20 758.28 588.96 761.23 588.47 764.00 C 596.30 763.98 604.14 764.06 611.97 763.92 C 611.45 759.93 610.91 755.19 607.12 752.89 C 601.97 750.13 594.35 750.78 590.93 755.96 Z" />
<path fill="#232832" opacity="0.76" d=" M 820.61 750.58 C 825.60 745.18 833.74 743.88 840.64 745.58 C 846.60 747.14 851.38 752.10 853.04 758.00 C 854.33 761.94 854.00 766.14 854.00 770.23 C 843.49 770.19 832.98 770.34 822.47 770.14 C 822.10 775.86 824.56 782.53 830.45 784.42 C 837.45 786.40 844.93 784.83 851.58 782.29 C 851.55 784.54 851.54 786.80 851.55 789.06 C 843.58 792.20 834.17 793.60 826.12 789.98 C 819.48 787.01 815.25 780.07 814.63 772.95 C 813.74 765.17 814.96 756.43 820.61 750.58 M 827.40 753.38 C 823.97 755.79 822.89 760.05 822.48 764.00 C 830.31 763.98 838.14 764.06 845.97 763.92 C 845.45 759.94 844.91 755.20 841.13 752.89 C 836.94 750.64 831.38 750.71 827.40 753.38 Z" />
<path fill="#232832" opacity="0.76" d=" M 895.37 745.50 C 900.39 744.27 905.69 745.11 910.52 746.76 C 909.87 749.00 909.25 751.25 908.73 753.54 C 903.01 751.89 896.23 750.31 890.92 753.93 C 886.90 756.47 885.48 761.39 885.43 765.90 C 885.30 774.26 885.46 782.63 885.37 791.00 C 882.83 790.99 880.30 791.00 877.78 791.00 C 877.76 776.00 877.76 761.00 877.77 746.00 C 879.83 745.99 881.89 745.99 883.96 746.00 C 884.22 748.65 884.60 751.30 885.06 753.94 C 887.59 750.23 890.87 746.68 895.37 745.50 Z" />
<path fill="#232832" opacity="0.76" d=" M 403.28 746.00 C 405.91 745.99 408.54 745.99 411.17 746.00 C 414.43 754.07 417.59 762.19 420.81 770.29 C 422.71 775.12 424.74 779.97 425.55 785.15 C 429.17 771.80 434.59 759.04 439.11 745.99 C 441.79 745.99 444.46 745.99 447.14 746.00 C 440.46 763.07 434.00 780.23 427.38 797.32 C 425.56 801.56 423.43 806.01 419.58 808.77 C 414.99 811.82 409.07 811.34 403.92 810.25 C 403.96 808.23 403.99 806.23 404.02 804.23 C 408.19 804.85 413.11 805.45 416.57 802.50 C 419.29 799.53 420.46 795.56 422.03 791.95 C 415.66 776.68 409.45 761.34 403.28 746.00 Z" />
<path fill="#232832" opacity="0.76" d=" M 703.00 746.00 C 709.26 746.01 715.53 745.97 721.80 746.00 C 721.78 758.98 721.73 771.97 721.82 784.95 C 726.58 785.18 731.33 785.64 736.09 785.94 C 736.08 787.62 736.08 789.31 736.09 791.00 C 724.06 791.00 712.03 791.00 700.00 791.00 C 699.99 789.30 699.99 787.62 700.00 785.94 C 704.66 785.64 709.31 785.20 713.98 784.97 C 714.07 773.99 714.04 763.02 713.99 752.05 C 710.32 751.71 706.66 751.35 703.00 750.98 C 702.99 749.31 702.99 747.65 703.00 746.00 Z" />
<path fill="#232832" opacity="0.76" d=" M 753.37 745.99 C 755.97 745.99 758.58 745.99 761.20 745.99 C 765.89 759.30 771.36 772.34 775.36 785.88 C 778.76 772.22 784.47 759.26 789.12 746.00 C 791.78 745.99 794.45 745.99 797.13 746.00 C 791.32 760.97 785.81 776.05 779.97 791.01 C 776.71 791.00 773.46 791.00 770.22 791.00 C 764.77 775.93 758.73 761.08 753.37 745.99 Z" />
<path fill="#232832" opacity="0.76" d=" M 928.32 746.00 C 930.93 745.99 933.55 745.99 936.17 746.00 C 939.53 754.32 942.79 762.69 946.11 771.04 C 947.88 775.61 949.86 780.19 950.44 785.12 C 954.31 771.84 959.52 759.02 964.12 745.99 C 966.79 745.99 969.46 745.99 972.15 746.00 C 967.58 757.53 963.25 769.15 958.75 780.71 C 955.31 788.83 953.20 797.64 948.26 805.04 C 944.30 811.35 935.51 812.29 929.05 810.05 C 928.90 808.10 928.97 806.16 929.00 804.23 C 933.18 804.85 938.13 805.46 941.60 802.47 C 944.29 799.50 945.47 795.55 947.03 791.93 C 940.68 776.67 934.41 761.37 928.32 746.00 Z" />
<path fill="#232832" opacity="0.76" d=" M 473.13 859.10 C 477.98 856.86 479.66 865.54 474.96 866.02 C 471.06 866.87 469.92 860.61 473.13 859.10 Z" />
<path fill="#232832" opacity="0.76" d=" M 589.61 859.00 C 594.07 859.00 598.54 858.99 603.00 859.00 C 603.04 872.95 602.91 886.91 603.08 900.86 C 606.51 900.91 609.94 901.00 613.36 901.31 C 613.40 902.50 613.45 903.71 613.51 904.93 C 604.79 905.06 596.06 905.06 587.34 904.93 C 587.37 903.71 587.41 902.49 587.45 901.29 C 590.79 901.01 594.15 900.92 597.51 900.83 C 597.40 888.28 597.39 875.74 597.51 863.20 C 594.88 863.08 592.26 862.95 589.64 862.74 C 589.63 861.80 589.62 859.93 589.61 859.00 Z" />
<path fill="#232832" opacity="0.76" d=" M 809.10 859.10 C 813.95 856.86 815.67 865.46 811.00 866.02 C 807.08 866.89 805.92 860.67 809.10 859.10 Z" />
<path fill="#232832" opacity="0.76" d=" M 418.98 869.02 C 420.01 864.84 424.03 862.12 428.07 861.33 C 433.79 860.30 439.68 861.26 445.13 863.14 C 444.45 864.81 443.79 866.49 443.10 868.17 C 438.18 866.36 432.63 864.98 427.50 866.73 C 423.62 868.19 422.91 873.67 425.62 876.56 C 428.79 879.80 433.51 880.54 437.48 882.42 C 441.20 884.02 445.07 886.72 445.71 891.04 C 447.23 896.77 443.71 903.28 437.97 904.93 C 431.47 906.87 424.34 906.33 417.97 904.13 C 417.98 902.32 417.99 900.52 418.00 898.73 C 423.78 900.85 430.29 902.13 436.30 900.29 C 441.12 898.74 441.93 890.97 437.39 888.65 C 432.52 885.63 426.38 884.91 422.10 880.91 C 418.82 877.98 418.09 873.14 418.98 869.02 Z" />
<path fill="#232832" opacity="0.76" d=" M 168.20 862.00 C 176.47 861.98 184.74 862.01 193.01 862.00 C 193.01 863.64 193.02 865.30 193.03 866.97 C 186.68 866.98 180.33 866.96 173.99 866.98 C 173.96 871.31 173.97 875.65 173.98 879.99 C 179.99 880.00 186.00 880.00 192.01 880.00 C 192.00 881.64 192.00 883.30 192.00 884.97 C 186.00 884.98 180.00 884.96 174.00 884.98 C 173.96 889.99 173.96 895.00 173.99 900.02 C 180.35 900.04 186.70 900.01 193.06 900.03 C 193.04 901.68 193.03 903.33 193.01 905.00 C 184.73 904.96 176.45 905.07 168.17 904.97 C 168.27 890.64 168.21 876.32 168.20 862.00 Z" />
<path fill="#232832" opacity="0.76" d=" M 753.91 862.00 C 761.22 862.32 769.40 860.54 775.77 865.16 C 782.96 870.09 784.63 879.76 783.37 887.85 C 782.75 893.96 779.47 900.12 773.75 902.82 C 767.61 905.98 760.53 904.80 753.91 905.00 C 753.90 890.66 753.90 876.33 753.91 862.00 M 759.51 896.01 C 759.58 897.37 759.32 898.86 759.92 900.17 C 764.62 900.39 769.92 899.88 773.47 896.42 C 777.09 892.59 777.90 887.00 777.73 881.94 C 777.39 877.24 776.29 871.89 772.09 869.10 C 768.51 866.45 763.84 866.91 759.65 866.72 C 759.40 876.48 759.67 886.25 759.51 896.01 Z" />
<path fill="#232832" opacity="0.76" d=" M 1016.77 862.00 C 1018.96 861.99 1021.16 861.99 1023.37 862.00 C 1023.11 872.34 1022.17 882.66 1021.99 893.01 C 1020.66 893.00 1019.34 892.99 1018.04 893.00 C 1017.97 882.65 1016.85 872.35 1016.77 862.00 Z" />
<path fill="#232832" opacity="0.76" d=" M 973.99 864.33 C 974.82 864.30 976.46 864.25 977.28 864.23 C 977.23 867.13 977.22 870.04 977.20 872.96 C 981.49 872.99 985.79 873.00 990.09 873.00 C 990.08 874.40 990.07 875.81 990.08 877.23 C 985.81 877.22 981.55 877.20 977.29 877.29 C 977.20 882.85 977.21 888.41 977.23 893.97 C 977.33 896.28 977.27 899.11 979.34 900.67 C 982.74 902.03 986.45 901.09 989.98 900.95 C 989.99 902.32 990.01 903.71 990.04 905.11 C 985.56 906.06 980.56 906.90 976.29 904.77 C 973.37 903.43 971.90 900.14 971.94 897.06 C 971.76 890.46 971.95 883.85 971.85 877.26 C 969.22 877.23 966.60 877.22 963.99 877.22 C 964.00 876.46 964.00 874.94 964.00 874.18 C 966.58 873.67 969.17 873.15 971.80 872.80 C 972.58 869.99 973.30 867.16 973.99 864.33 Z" />
<path fill="#232832" opacity="0.76" d=" M 210.05 874.76 C 215.77 871.84 222.70 870.92 228.81 873.12 C 232.40 874.40 234.22 878.33 234.07 881.96 C 234.14 889.64 234.07 897.32 234.09 905.01 C 232.77 904.99 231.46 904.99 230.15 905.01 C 229.79 903.83 229.43 902.67 229.07 901.52 C 225.04 905.84 218.57 907.34 213.08 905.15 C 206.66 902.58 205.96 892.15 211.96 888.74 C 217.07 885.74 223.24 886.02 228.96 885.91 C 228.70 882.83 228.77 878.97 225.59 877.32 C 221.11 875.52 216.25 877.28 211.98 878.88 C 211.33 877.50 210.69 876.12 210.05 874.76 M 215.89 891.89 C 213.24 893.42 213.22 897.15 214.33 899.66 C 217.16 902.94 222.47 902.04 225.61 899.70 C 228.75 897.53 228.60 893.31 228.83 889.94 C 224.50 890.09 219.74 889.46 215.89 891.89 Z" />
<path fill="#232832" opacity="0.76" d=" M 256.66 873.66 C 262.57 870.83 270.10 871.35 275.79 874.52 C 274.72 875.68 274.58 879.25 272.20 878.02 C 268.06 876.96 263.50 875.64 259.38 877.47 C 257.12 878.59 257.06 882.40 259.40 883.47 C 264.08 886.30 270.01 886.96 274.02 890.91 C 278.10 895.00 275.98 902.70 270.68 904.67 C 264.73 907.03 257.78 906.41 251.89 904.11 C 251.89 902.45 251.89 900.81 251.88 899.17 C 257.00 900.80 262.59 902.41 267.91 900.72 C 270.82 899.82 271.83 895.65 269.22 893.81 C 264.71 890.65 258.81 890.02 254.60 886.36 C 250.87 882.79 251.82 875.76 256.66 873.66 Z" />
<path fill="#232832" opacity="0.76" d=" M 505.21 876.70 C 506.64 874.68 508.15 871.91 511.01 871.94 C 514.20 871.47 516.68 874.08 517.58 876.91 C 519.22 874.33 521.51 871.25 525.02 871.95 C 528.71 871.94 530.93 875.67 531.11 878.99 C 531.88 887.63 531.28 896.33 531.50 905.00 C 529.85 904.99 528.22 905.00 526.59 905.01 C 526.25 896.67 526.99 888.29 526.18 879.98 C 526.30 877.93 524.44 877.02 522.98 876.11 C 521.17 877.25 519.10 878.61 519.00 881.01 C 518.04 888.96 518.80 897.01 518.54 905.00 C 516.90 904.99 515.25 904.99 513.62 905.00 C 513.39 896.84 514.05 888.64 513.24 880.51 C 513.23 878.43 511.58 877.21 510.07 876.10 C 508.48 877.03 506.36 877.86 506.17 880.01 C 504.94 888.27 505.83 896.68 505.54 905.00 C 503.90 904.99 502.25 904.99 500.62 905.00 C 500.60 894.29 500.60 883.57 500.62 872.86 C 501.97 872.84 503.30 873.00 504.62 873.32 C 504.77 874.17 505.06 875.86 505.21 876.70 Z" />
<path fill="#232832" opacity="0.76" d=" M 549.74 876.38 C 554.12 871.14 562.93 870.16 567.77 875.23 C 572.21 880.38 572.60 887.72 571.67 894.16 C 570.83 899.65 567.13 905.58 561.07 905.98 C 556.88 906.76 552.81 904.92 549.96 901.92 C 550.05 907.61 549.98 913.30 550.00 919.00 C 548.19 918.99 546.38 918.99 544.58 919.01 C 544.43 903.67 544.59 888.33 544.50 873.00 C 545.98 872.99 547.47 872.99 548.96 873.00 C 549.21 874.11 549.47 875.24 549.74 876.38 M 554.33 877.38 C 550.54 879.37 550.13 884.18 550.00 887.98 C 550.06 892.03 550.12 896.78 553.26 899.80 C 556.27 902.13 561.31 902.14 563.84 899.05 C 566.12 896.23 566.18 892.40 566.26 888.96 C 566.17 885.54 566.11 881.77 563.86 878.98 C 561.65 876.18 557.39 876.09 554.33 877.38 Z" />
<path fill="#232832" opacity="0.76" d=" M 630.74 877.98 C 635.55 869.94 649.36 869.68 653.96 878.06 C 656.37 881.76 656.10 886.31 656.14 890.53 C 648.61 890.60 641.07 890.52 633.54 890.58 C 633.79 894.25 634.81 898.63 638.53 900.29 C 643.73 902.11 649.41 900.82 654.47 899.11 C 654.42 900.73 654.37 902.36 654.34 904.01 C 648.69 906.17 642.07 907.17 636.38 904.64 C 631.74 902.67 628.77 897.92 628.07 893.05 C 627.56 887.93 627.80 882.39 630.74 877.98 M 636.97 878.19 C 634.62 880.06 634.11 883.20 633.63 885.98 C 639.19 886.01 644.75 886.00 650.32 885.99 C 649.83 883.55 650.03 880.66 648.10 878.80 C 645.26 875.77 640.23 875.97 636.97 878.19 Z" />
<path fill="#232832" opacity="0.76" d=" M 853.37 872.61 C 857.18 871.27 861.32 872.10 865.12 873.10 C 864.67 874.78 864.22 876.46 863.78 878.16 C 859.82 876.99 855.08 875.86 851.36 878.24 C 848.04 880.23 847.12 884.39 847.09 887.99 C 847.04 893.66 847.13 899.33 847.09 905.00 C 845.25 904.99 843.43 904.99 841.62 905.00 C 841.60 894.33 841.59 883.66 841.62 873.00 C 843.11 872.99 844.62 872.99 846.13 872.99 C 846.33 874.65 846.56 876.33 846.79 878.01 C 848.76 875.97 850.59 873.56 853.37 872.61 Z" />
<path fill="#232832" opacity="0.76" d=" M 882.75 877.96 C 887.58 869.94 901.36 869.69 905.96 878.06 C 908.36 881.76 908.10 886.31 908.14 890.54 C 900.70 890.80 893.19 890.11 885.80 890.84 C 885.37 894.94 887.63 899.81 891.94 900.77 C 896.83 901.76 901.84 900.73 906.47 899.09 C 906.41 900.72 906.36 902.36 906.33 904.01 C 900.65 906.17 893.99 907.19 888.29 904.59 C 883.69 902.61 880.77 897.89 880.08 893.05 C 879.56 887.93 879.80 882.38 882.75 877.96 M 889.06 878.12 C 886.64 879.96 886.11 883.17 885.62 885.98 C 891.19 886.01 896.75 886.00 902.32 885.99 C 901.83 883.57 902.03 880.72 900.16 878.86 C 897.35 875.80 892.34 875.95 889.06 878.12 Z" />
<path fill="#232832" opacity="0.76" d=" M 928.99 874.74 C 934.96 870.83 942.80 871.34 949.24 873.79 C 948.67 875.23 948.11 876.68 947.57 878.15 C 942.71 877.21 937.06 875.52 932.66 878.69 C 928.59 881.78 928.54 887.36 928.86 891.99 C 929.03 895.74 931.35 899.48 935.06 900.63 C 939.54 901.77 944.24 900.88 948.56 899.45 C 948.58 901.10 948.61 902.76 948.63 904.43 C 942.69 906.33 935.74 907.17 930.06 904.05 C 925.12 901.34 922.91 895.43 922.94 890.04 C 922.66 884.44 924.23 878.18 928.99 874.74 Z" />
<path fill="#232832" opacity="0.76" d=" M 290.33 873.00 C 292.20 872.98 294.08 872.99 295.96 872.99 C 299.54 882.26 303.74 891.32 306.44 900.90 C 308.65 891.31 312.78 882.28 315.92 872.97 C 317.80 872.97 319.69 872.98 321.58 873.00 C 317.35 884.54 312.71 895.91 308.36 907.40 C 306.78 911.17 305.30 915.52 301.58 917.72 C 298.40 919.66 294.54 918.93 291.02 918.90 C 290.99 917.32 290.97 915.76 290.96 914.21 C 293.54 914.33 296.25 914.68 298.74 913.76 C 301.44 912.02 302.41 908.78 303.65 906.00 C 299.28 894.97 294.66 884.04 290.33 873.00 Z" />
<path fill="#232832" opacity="0.76" d=" M 463.94 873.00 C 468.36 873.00 472.79 872.99 477.22 873.00 C 477.25 882.28 477.21 891.56 477.25 900.84 C 480.68 900.92 484.11 901.00 487.53 901.27 C 487.57 902.48 487.62 903.69 487.67 904.92 C 479.00 905.13 470.33 904.93 461.66 905.00 C 461.68 904.06 461.72 902.18 461.74 901.24 C 465.07 900.99 468.41 900.92 471.75 900.84 C 471.78 892.95 471.77 885.06 471.76 877.17 C 469.20 877.05 466.64 876.96 464.08 876.88 C 464.02 875.58 463.97 874.28 463.94 873.00 Z" />
<path fill="#232832" opacity="0.76" d=" M 799.96 873.00 C 804.38 873.00 808.80 872.99 813.23 873.00 C 813.24 882.27 813.22 891.54 813.23 900.82 C 816.67 900.92 820.11 901.00 823.55 901.28 C 823.57 902.49 823.60 903.71 823.65 904.94 C 814.98 905.10 806.32 904.94 797.66 905.00 C 797.68 904.06 797.73 902.17 797.75 901.23 C 801.08 901.00 804.42 900.92 807.76 900.83 C 807.76 892.93 807.79 885.04 807.74 877.16 C 805.16 877.05 802.59 876.96 800.03 876.84 C 799.99 875.55 799.97 874.27 799.96 873.00 Z" />
<path fill="#232832" opacity="0.76" d=" M 346.06 896.99 C 348.44 896.99 350.82 896.99 353.21 897.00 C 352.02 902.53 349.70 907.72 347.63 912.96 C 346.02 912.99 344.41 913.00 342.81 913.04 C 343.95 907.70 345.17 902.38 346.06 896.99 Z" />
<path fill="#232832" opacity="0.76" d=" M 682.06 896.99 C 684.44 896.99 686.82 896.99 689.21 897.00 C 688.03 902.53 685.70 907.69 683.66 912.94 C 682.04 912.98 680.42 913.01 678.82 913.05 C 679.95 907.70 681.17 902.38 682.06 896.99 Z" />
<path fill="#232832" opacity="0.76" d=" M 1018.08 898.03 C 1019.69 897.91 1021.88 897.34 1022.94 899.03 C 1024.94 901.30 1023.66 906.57 1020.02 906.06 C 1015.64 906.50 1014.65 900.00 1018.08 898.03 Z" />
</g>
</svg>
