<?xml version="1.0" encoding="UTF-8" ?>
<!DOCTYPE svg PUBLIC "-//W3C//DTD SVG 1.1//EN" "http://www.w3.org/Graphics/SVG/1.1/DTD/svg11.dtd">
<svg width="89pt" height="98pt" viewBox="0 0 89 98" version="1.1" xmlns="http://www.w3.org/2000/svg">
<g id="#ffffffff">
</g>
<g id="#2370baff">
<path fill="#2370ba" opacity="1.00" d=" M 34.79 4.79 C 37.50 3.30 40.08 1.48 43.07 0.56 C 45.45 -0.02 47.63 1.41 49.66 2.43 C 61.39 9.07 73.22 15.54 84.97 22.13 C 87.09 23.16 88.48 25.12 89.00 27.39 L 89.00 71.72 C 88.20 74.15 86.32 75.93 84.06 77.04 C 71.35 83.95 58.85 91.26 46.05 98.00 L 42.40 98.00 C 29.82 91.23 17.50 83.99 4.98 77.09 C 2.59 75.91 0.53 74.02 0.00 71.30 L 0.00 26.55 C 1.39 23.11 4.90 21.57 7.93 19.89 C 16.90 14.89 25.83 9.81 34.79 4.79 M 2.97 31.94 C 3.06 44.67 2.94 57.40 3.03 70.14 C 2.75 72.40 4.90 73.58 6.56 74.54 C 18.50 81.16 30.33 87.99 42.30 94.58 C 43.82 95.60 45.60 95.05 47.04 94.19 C 58.84 87.63 70.62 81.03 82.44 74.51 C 84.12 73.56 86.27 72.35 85.98 70.06 C 86.03 56.35 86.00 42.63 85.99 28.92 C 86.20 27.39 85.32 26.18 84.37 25.09 C 71.96 32.12 59.52 39.13 47.07 46.10 C 45.19 47.34 42.83 47.08 41.00 45.88 C 28.87 38.99 16.64 32.27 4.56 25.27 C 2.50 26.90 3.06 29.63 2.97 31.94 Z" />
</g>
</svg>
