<?xml version="1.0" encoding="UTF-8" ?>
<!DOCTYPE svg PUBLIC "-//W3C//DTD SVG 1.1//EN" "http://www.w3.org/Graphics/SVG/1.1/DTD/svg11.dtd">
<svg width="1200pt" height="600pt" viewBox="0 0 1200 600" version="1.1" xmlns="http://www.w3.org/2000/svg">
<g id="#ffffffff">
</g>
<g id="#6cb33eff">
<path fill="#6cb33e" opacity="1.00" d=" M 280.54 236.54 C 294.66 222.88 313.41 214.01 332.98 212.08 C 338.99 211.79 345.02 211.84 351.03 212.02 C 371.82 213.80 391.57 223.66 406.19 238.45 C 409.99 233.27 413.23 227.69 415.74 221.78 C 422.54 243.13 429.24 264.76 431.27 287.19 C 432.83 306.42 429.90 326.44 420.32 343.41 C 405.11 371.27 374.00 390.35 342.00 389.10 C 320.63 389.88 299.69 381.13 283.56 367.42 C 286.80 369.69 291.90 369.81 294.49 366.52 C 297.55 363.02 296.47 356.77 292.12 354.87 C 288.27 352.75 282.97 354.86 281.68 359.07 C 280.50 361.76 281.74 364.54 282.95 366.96 C 270.76 355.37 261.12 340.87 256.65 324.56 C 253.18 313.36 253.43 301.52 254.00 289.95 C 256.20 269.76 265.93 250.59 280.54 236.54 M 395.66 253.70 C 384.14 262.57 370.45 268.85 356.00 270.86 C 341.76 272.95 326.91 271.34 313.14 276.22 C 300.75 280.38 289.71 289.24 284.20 301.23 C 279.30 311.73 278.34 324.32 282.78 335.14 C 285.26 341.11 289.77 346.60 295.92 348.97 C 304.21 347.48 312.40 345.44 320.59 343.49 C 332.04 340.51 343.65 337.59 354.27 332.24 C 366.52 326.18 377.69 317.97 387.22 308.19 C 395.66 299.38 402.90 289.16 406.90 277.56 C 405.59 286.43 401.99 294.81 397.61 302.58 C 385.45 323.26 366.53 340.36 343.95 348.85 C 331.37 353.43 318.28 356.48 305.86 361.50 C 328.45 358.50 351.29 362.71 373.92 360.00 C 385.62 358.69 397.55 355.47 406.97 348.09 C 420.28 337.61 426.33 320.43 427.42 303.98 C 429.01 279.05 422.39 254.53 414.86 231.00 C 410.39 239.97 403.55 247.59 395.66 253.70 Z" />
<path fill="#6cb33e" opacity="1.00" d=" M 715.48 223.68 C 721.89 220.20 730.41 225.81 729.69 233.06 C 729.77 240.58 720.19 245.30 714.20 240.85 C 707.94 237.01 708.69 226.54 715.48 223.68 Z" />
<path fill="#6cb33e" opacity="1.00" d=" M 505.53 256.77 C 517.54 254.78 530.01 257.71 540.64 263.40 C 544.60 265.45 546.08 270.87 543.79 274.67 C 541.64 278.60 536.14 279.73 532.36 277.55 C 526.04 274.44 519.21 271.80 512.05 271.94 C 508.60 272.00 504.87 272.80 502.41 275.38 C 499.96 277.88 499.65 282.30 502.12 284.90 C 505.47 288.35 510.29 289.67 514.69 291.25 C 524.13 294.45 534.62 296.85 541.63 304.48 C 547.88 311.17 547.81 321.56 544.56 329.64 C 541.01 338.33 532.01 343.45 523.08 344.91 C 508.45 347.27 493.08 343.30 480.97 334.89 C 476.82 331.95 477.15 325.01 481.19 322.11 C 484.01 319.95 488.09 320.06 491.00 322.02 C 498.46 326.75 507.14 330.04 516.09 329.80 C 519.70 329.69 523.61 328.86 526.25 326.20 C 529.24 323.25 529.44 317.70 526.08 314.95 C 522.04 311.66 516.82 310.46 511.97 308.87 C 503.64 306.30 494.63 304.08 488.19 297.79 C 481.29 291.11 480.77 279.97 484.54 271.56 C 488.27 263.29 496.85 258.27 505.53 256.77 Z" />
<path fill="#6cb33e" opacity="1.00" d=" M 558.06 258.13 C 562.20 255.01 568.74 255.99 571.76 260.23 C 574.44 263.63 573.63 268.21 573.67 272.22 C 578.21 265.58 584.63 259.94 592.41 257.53 C 605.22 253.53 619.94 257.20 629.62 266.42 C 637.56 273.75 641.94 284.32 642.91 294.97 C 644.34 309.04 640.79 324.35 630.46 334.51 C 619.44 345.75 601.09 349.24 586.94 342.11 C 581.66 339.45 577.30 335.29 573.71 330.66 C 573.71 340.79 573.76 350.92 573.70 361.05 C 573.81 364.85 571.43 368.51 567.98 370.05 C 563.70 372.10 558.08 370.55 555.60 366.48 C 553.69 363.66 554.08 360.14 554.06 356.93 C 554.09 326.94 554.07 296.95 554.07 266.96 C 553.90 263.60 555.26 260.11 558.06 258.13 M 594.47 273.56 C 585.42 275.12 577.90 282.23 575.12 290.88 C 571.92 300.77 573.51 312.57 580.62 320.43 C 587.70 328.56 600.44 330.99 609.97 325.88 C 617.36 322.04 621.98 314.14 622.97 306.01 C 624.20 297.22 622.35 287.54 616.19 280.87 C 610.84 274.90 602.33 272.08 594.47 273.56 Z" />
<path fill="#6cb33e" opacity="1.00" d=" M 654.40 258.51 C 658.54 254.89 665.60 255.86 668.70 260.38 C 670.90 263.20 670.56 266.95 670.48 270.31 C 672.63 264.27 678.25 260.36 683.97 258.04 C 687.98 256.51 692.65 255.48 696.78 257.16 C 703.24 259.91 703.70 270.14 697.97 273.90 C 694.35 276.16 689.79 275.99 686.13 278.20 C 676.42 283.00 671.05 293.79 670.48 304.29 C 670.14 314.85 670.47 325.42 670.32 335.98 C 670.41 341.69 664.60 346.31 659.06 345.35 C 654.49 344.82 650.65 340.61 650.75 335.98 C 650.68 313.31 650.74 290.65 650.72 267.99 C 650.67 264.52 651.56 260.76 654.40 258.51 Z" />
<path fill="#6cb33e" opacity="1.00" d=" M 778.10 257.15 C 788.09 255.10 799.59 256.55 807.34 263.68 C 814.29 270.04 816.91 279.78 816.98 288.93 C 816.99 304.66 817.05 320.39 816.95 336.11 C 816.97 340.95 812.80 345.29 807.95 345.41 C 802.56 346.02 797.19 341.44 797.37 335.93 C 797.29 322.29 797.42 308.65 797.31 295.02 C 797.27 288.45 795.38 281.12 789.62 277.27 C 781.53 272.09 769.29 273.56 763.50 281.54 C 760.43 285.64 759.29 290.87 759.29 295.91 C 759.25 309.28 759.32 322.65 759.26 336.02 C 759.34 339.70 757.01 343.22 753.67 344.70 C 749.51 346.66 744.06 345.42 741.42 341.59 C 739.74 339.44 739.57 336.63 739.63 334.03 C 739.75 311.04 739.52 288.04 739.74 265.06 C 740.17 257.97 749.27 253.97 754.92 258.14 C 759.07 260.67 759.66 265.88 759.28 270.30 C 763.73 263.86 770.31 258.70 778.10 257.15 Z" />
<path fill="#6cb33e" opacity="1.00" d=" M 835.25 269.36 C 845.31 257.32 863.24 252.29 877.90 258.23 C 884.58 260.89 889.86 266.07 894.14 271.72 C 894.25 267.82 893.46 263.39 896.07 260.09 C 898.98 255.97 905.17 254.87 909.38 257.63 C 912.52 259.55 914.17 263.31 914.01 266.93 C 913.98 286.95 914.03 306.96 913.98 326.98 C 913.91 337.47 911.73 348.56 904.83 356.80 C 898.85 364.11 889.66 367.94 880.52 369.40 C 863.99 371.94 846.38 369.67 831.72 361.37 C 826.56 357.84 828.09 348.91 834.11 347.24 C 839.19 345.20 843.40 349.58 848.01 350.91 C 858.62 354.62 870.86 355.90 881.44 351.44 C 889.57 348.01 893.81 339.17 894.14 330.70 C 889.86 336.02 884.59 340.74 878.13 343.19 C 865.54 348.08 850.49 345.44 840.15 336.81 C 831.77 330.00 826.71 319.70 825.27 309.09 C 823.35 295.29 825.93 280.15 835.25 269.36 M 864.44 273.50 C 855.25 275.28 847.96 283.03 845.81 292.00 C 843.20 302.52 845.12 315.03 853.46 322.57 C 861.60 330.09 875.03 330.48 883.78 323.78 C 897.94 313.37 898.11 289.42 884.55 278.45 C 879.03 273.90 871.44 272.04 864.44 273.50 Z" />
<path fill="#6cb33e" opacity="1.00" d=" M 715.38 257.40 C 721.42 254.27 729.57 259.10 729.48 265.95 C 729.56 289.30 729.53 312.66 729.50 336.01 C 729.67 341.15 725.03 345.67 719.93 345.60 C 714.65 345.99 709.73 341.32 709.87 336.02 C 709.78 313.04 709.85 290.06 709.84 267.08 C 709.62 263.13 711.72 259.08 715.38 257.40 Z" />
<path fill="#6cb33e" opacity="1.00" d=" M 932.40 257.54 C 938.69 254.33 947.45 259.74 946.32 267.03 C 947.18 275.14 936.21 279.85 930.37 274.69 C 924.43 270.46 925.61 260.24 932.40 257.54 M 934.38 258.43 C 928.21 259.74 925.84 268.31 930.34 272.67 C 934.56 277.54 943.58 275.29 944.89 268.94 C 946.87 262.80 940.47 256.54 934.38 258.43 Z" />
<path fill="#6cb33e" opacity="1.00" d=" M 932.73 260.89 C 935.47 261.10 939.41 259.94 941.04 262.93 C 942.14 265.09 940.44 267.07 938.67 268.12 C 939.62 269.58 940.58 271.04 941.51 272.54 C 937.63 273.30 938.13 267.21 934.36 267.72 C 934.33 269.30 934.32 270.87 934.32 272.45 L 932.73 272.39 C 932.71 268.55 932.71 264.72 932.73 260.89 M 934.35 262.25 C 934.31 263.65 934.34 265.08 934.35 266.49 C 936.09 266.23 938.52 266.96 939.50 264.99 C 940.07 261.87 936.26 262.40 934.35 262.25 Z" />
</g>
</svg>
